<svg xmlns="http://www.w3.org/2000/svg" viewBox="0 0 645.83 62.56"><defs><style>.cls-1{fill:#91368b;}.cls-2{fill:#0090d4;}.cls-3{fill:#44b349;}.cls-4{fill:#ffae39;}.cls-5{fill:#fd752c;}.cls-6{fill:#e63039;}</style></defs><g id="Layer_2" data-name="Layer 2"><g id="Layer_1-2" data-name="Layer 1"><polygon class="cls-1" points="0 1.55 18.94 12.15 626.34 10.69 645.83 0 0 1.55"/><polygon class="cls-2" points="24.15 16.49 40.27 25.43 599.55 24.08 615.85 15.06 24.15 16.49"/><polygon class="cls-3" points="44.56 29.11 58.46 36.76 576.7 35.51 590.52 27.8 44.56 29.11"/><polygon class="cls-4" points="62.05 39.92 74.17 46.53 556.97 45.37 568.82 38.7 62.05 39.92"/><polygon class="cls-5" points="77.19 49.29 87.86 55.06 539.76 53.97 550.02 48.15 77.19 49.29"/><polygon class="cls-6" points="90.43 57.47 99.91 62.56 524.63 61.54 533.59 56.41 90.43 57.47"/></g></g></svg>