<svg xmlns="http://www.w3.org/2000/svg" viewBox="0 0 429.13 198.23"><defs><style>.cls-1{fill:none;stroke:#393;stroke-miterlimit:10;}</style></defs><g id="Layer_2" data-name="Layer 2"><g id="Layer_1-2" data-name="Layer 1"><line class="cls-1" x1="0.38" y1="71.92" x2="112.09" y2="0.42"/><line class="cls-1" x1="0.38" y1="196.92" x2="157.38" y2="8.92"/><line class="cls-1" x1="0.38" y1="132.92" x2="148.58" y2="0.42"/><line class="cls-1" x1="176.49" y1="0.42" x2="65.38" y2="196.92"/><line class="cls-1" x1="190.38" y1="0.92" x2="116.38" y2="196.92"/><line class="cls-1" x1="205.38" y1="0.92" x2="168.38" y2="196.92"/><line class="cls-1" x1="217.38" y1="0.92" x2="217.28" y2="196.66"/><line class="cls-1" x1="230.16" y1="0.42" x2="267.38" y2="196.92"/><line class="cls-1" x1="243.38" y1="0.92" x2="317.11" y2="195.39"/><line class="cls-1" x1="258.38" y1="0.92" x2="368.63" y2="197.92"/><line class="cls-1" x1="273.1" y1="0.42" x2="428.74" y2="197.92"/><line class="cls-1" x1="0.38" y1="0.93" x2="273.38" y2="0.92"/><line class="cls-1" x1="48.38" y1="1.42" x2="47.38" y2="139.92"/><line class="cls-1" x1="47.38" y1="139.92" x2="383.38" y2="139.92"/><line class="cls-1" x1="84.38" y1="0.92" x2="84.38" y2="96.42"/><line class="cls-1" x1="84.38" y1="95.92" x2="348.38" y2="95.92"/><line class="cls-1" x1="105.8" y1="0.42" x2="105.8" y2="70.05"/><line class="cls-1" x1="106.38" y1="69.92" x2="327.84" y2="70.05"/><line class="cls-1" x1="122.82" y1="0.42" x2="122.82" y2="49.8"/><line class="cls-1" x1="122.38" y1="49.92" x2="312.38" y2="49.92"/><line class="cls-1" x1="134.56" y1="0.42" x2="134.38" y2="35.92"/><line class="cls-1" x1="134.09" y1="35.87" x2="299.93" y2="34.6"/><line class="cls-1" x1="143.38" y1="0.92" x2="143.38" y2="25.42"/><line class="cls-1" x1="143.39" y1="24.92" x2="292.42" y2="24.48"/><line class="cls-1" x1="150.66" y1="0.42" x2="150.38" y2="16.92"/><line class="cls-1" x1="150.39" y1="16.92" x2="285.98" y2="16.88"/><line class="cls-1" x1="157.17" y1="9.28" x2="157.17" y2="0.42"/><line class="cls-1" x1="157.39" y1="8.93" x2="279.39" y2="8.92"/></g></g></svg>